HIERARCHY
ROOT Hips
{
	OFFSET 0.00000 0.00000 0.00000
	CHANNELS 6 Xposition Yposition Zposition Zrotation Yrotation Xrotation 
	JOINT LHipJoint
	{
		OFFSET 0 0 0
		CHANNELS 3 Zrotation Yrotation Xrotation
		JOINT LeftUpLeg
		{
			OFFSET 1.80322 -1.53100 0.99595
			CHANNELS 3 Zrotation Yrotation Xrotation
			JOINT LeftLeg
			{
				OFFSET 2.25177 -6.18669 0.00000
				CHANNELS 3 Zrotation Yrotation Xrotation
				JOINT LeftFoot
				{
					OFFSET 2.26601 -6.22582 0.00000
					CHANNELS 3 Zrotation Yrotation Xrotation
					JOINT LeftToeBase
					{
						OFFSET 0.23701 -0.65119 2.15848
						CHANNELS 3 Zrotation Yrotation Xrotation
						End Site
						{
							OFFSET 0.00000 -0.00000 1.12949
						}
					}
				}
			}
		}
	}
	JOINT RHipJoint
	{
		OFFSET 0 0 0
		CHANNELS 3 Zrotation Yrotation Xrotation
		JOINT RightUpLeg
		{
			OFFSET -1.93977 -1.53100 0.99595
			CHANNELS 3 Zrotation Yrotation Xrotation
			JOINT RightLeg
			{
				OFFSET -2.28036 -6.26523 0.00000
				CHANNELS 3 Zrotation Yrotation Xrotation
				JOINT RightFoot
				{
					OFFSET -2.25490 -6.19528 0.00000
					CHANNELS 3 Zrotation Yrotation Xrotation
					JOINT RightToeBase
					{
						OFFSET -0.28375 -0.77960 2.23137
						CHANNELS 3 Zrotation Yrotation Xrotation
						End Site
						{
							OFFSET -0.00000 -0.00000 1.17899
						}
					}
				}
			}
		}
	}
	JOINT LowerBack
	{
		OFFSET 0 0 0
		CHANNELS 3 Zrotation Yrotation Xrotation
		JOINT Spine
		{
			OFFSET -0.00088 2.12090 -0.02806
			CHANNELS 3 Zrotation Yrotation Xrotation
			JOINT Spine1
			{
				OFFSET -0.00286 2.09666 0.12974
				CHANNELS 3 Zrotation Yrotation Xrotation
				JOINT Neck
				{
					OFFSET 0 0 0
					CHANNELS 3 Zrotation Yrotation Xrotation
					JOINT Neck1
					{
						OFFSET 0.07328 1.83526 0.07290
						CHANNELS 3 Zrotation Yrotation Xrotation
						JOINT Head
						{
							OFFSET -0.06683 1.74974 -0.49542
							CHANNELS 3 Zrotation Yrotation Xrotation
							End Site
							{
								OFFSET -0.03398 1.85163 -0.17573
							}
						}
					}
				}
				JOINT LeftShoulder
				{
					OFFSET 0 0 0
					CHANNELS 3 Zrotation Yrotation Xrotation
					JOINT LeftArm
					{
						OFFSET 3.02113 1.18018 0.40602
						CHANNELS 3 Zrotation Yrotation Xrotation
						JOINT LeftForeArm
						{
							OFFSET 4.58538 -0.00000 -0.00000
							CHANNELS 3 Zrotation Yrotation Xrotation
							JOINT LeftHand
							{
								OFFSET 2.68935 -0.00000 -0.00000
								CHANNELS 3 Zrotation Yrotation Xrotation
								JOINT LeftFingerBase
								{
									OFFSET 0 0 0
									CHANNELS 3 Zrotation Yrotation Xrotation
									JOINT LeftHandIndex1
									{
										OFFSET 0.58506 -0.00000 -0.00000
										CHANNELS 3 Zrotation Yrotation Xrotation
										End Site
										{
											OFFSET 0.47169 -0.00000 -0.00000
										}
									}
								}
								JOINT LThumb
								{
									OFFSET 0 0 0
									CHANNELS 3 Zrotation Yrotation Xrotation
									End Site
									{
										OFFSET 0.47889 -0.00000 0.47889
									}
								}
							}
						}
					}
				}
				JOINT RightShoulder
				{
					OFFSET 0 0 0
					CHANNELS 3 Zrotation Yrotation Xrotation
					JOINT RightArm
					{
						OFFSET -2.95074 1.18843 0.31430
						CHANNELS 3 Zrotation Yrotation Xrotation
						JOINT RightForeArm
						{
							OFFSET -4.47450 -0.00000 -0.00000
							CHANNELS 3 Zrotation Yrotation Xrotation
							JOINT RightHand
							{
								OFFSET -2.93896 -0.00000 -0.00000
								CHANNELS 3 Zrotation Yrotation Xrotation
								JOINT RightFingerBase
								{
									OFFSET 0 0 0
									CHANNELS 3 Zrotation Yrotation Xrotation
									JOINT RightHandIndex1
									{
										OFFSET -0.40509 -0.00000 -0.00000
										CHANNELS 3 Zrotation Yrotation Xrotation
										End Site
										{
											OFFSET -0.32660 -0.00000 -0.00000
										}
									}
								}
								JOINT RThumb
								{
									OFFSET 0 0 0
									CHANNELS 3 Zrotation Yrotation Xrotation
									End Site
									{
										OFFSET -0.33158 -0.00000 0.33158
									}
								}
							}
						}
					}
				}
			}
		}
	}
}
MOTION
Frames: 14
Frame Time: .0083333
0.0602 14.8788 9.4357 1.7379 -0.6278 16.4318 0.0000 0.0000 0.0000 -19.5811 -19.6641 -30.0909 6.5852 14.9724 47.2876 2.2388 2.9009 -29.4279 0.0490 -1.4282 -3.9279 0.0000 0.0000 0.0000 16.5494 15.2612 -33.6364 -7.8947 -16.0413 52.1825 -2.8553 -2.8390 -33.0483 -0.0424 1.3297 -3.6564 -0.2083 -0.5380 -1.4782 -0.6662 -0.8208 -12.5628 -0.5300 -0.4293 -12.7188 11.6753 5.1490 -7.9445 -6.8431 7.2299 30.2217 -3.6590 3.8217 11.8877 -0.0000 0.0000 0.0000 28.7807 -13.2952 -61.1928 16.7178 -26.4843 -3.9607 -0.0000 0.0000 -10.5685 10.8342 28.3951 5.2002 -7.1250 0.0000 -0.0000 -21.8421 57.4432 -6.8754 -0.0000 0.0000 0.0000 -30.8158 18.9503 -69.9595 -17.2381 27.1706 -4.1955 0.0000 -0.0000 -30.1740 -31.2466 -25.7646 14.7744 7.1250 -0.0000 -0.0000 -1.7247 -59.4183 0.6074
0.0551 14.8559 9.4431 1.7694 -0.6389 16.4039 0.0000 0.0000 0.0000 -19.5835 -19.7708 -30.2782 6.7256 15.0964 47.8289 2.2668 2.9948 -29.6429 0.0567 -1.5370 -4.2277 0.0000 0.0000 0.0000 16.5308 15.1865 -33.8494 -8.0303 -16.1415 52.6718 -2.8998 -2.7265 -33.2523 -0.0460 1.3842 -3.8066 -0.2474 -0.5410 -1.4782 -0.6761 -0.8283 -12.5714 -0.5184 -0.4294 -12.7289 11.6464 5.1441 -8.0120 -6.7893 7.2188 30.4830 -3.6391 3.8213 12.0021 0.0000 0.0000 0.0000 29.5041 -14.0859 -61.5171 16.9859 -26.8392 -4.0810 -0.0000 0.0000 -11.1592 10.6590 28.3148 5.1013 -7.1250 0.0000 -0.0000 -21.9633 57.3321 -6.8564 0.0000 0.0000 0.0000 -31.5600 19.7226 -69.8772 -17.5352 27.5579 -4.3321 0.0000 -0.0000 -30.5553 -31.1859 -25.6583 14.6864 7.1250 -0.0000 -0.0000 -1.6834 -59.2867 0.5876
0.0503 14.8335 9.4503 1.8151 -0.6523 16.3866 0.0000 0.0000 0.0000 -19.5959 -19.8947 -30.4688 6.8651 15.2172 48.3621 2.2941 3.0936 -29.8551 0.0643 -1.6361 -4.5010 0.0000 0.0000 0.0000 16.4932 15.0997 -34.0810 -8.1664 -16.2403 53.1600 -2.9433 -2.6044 -33.4456 -0.0496 1.4371 -3.9523 -0.3021 -0.5472 -1.4825 -0.6869 -0.8411 -12.5799 -0.4986 -0.4305 -12.7360 11.6116 5.1387 -8.0826 -6.7325 7.2070 30.7505 -3.6172 3.8202 12.1200 0.0000 0.0000 0.0000 30.1919 -14.8434 -61.7657 17.2918 -27.2409 -4.2200 -0.0000 0.0000 -11.8038 10.4848 28.2515 5.0063 -7.1250 0.0000 -0.0000 -22.0952 57.2372 -6.8490 0.0000 0.0000 0.0000 -32.2686 20.4784 -69.7246 -17.8595 27.9769 -4.4831 0.0000 -0.0000 -30.9106 -31.0969 -25.5703 14.5923 7.1250 -0.0000 -0.0000 -1.6037 -59.1683 0.5552
0.0457 14.8117 9.4573 1.8630 -0.6657 16.3803 0.0000 0.0000 0.0000 -19.6061 -20.0270 -30.6683 7.0042 15.3354 48.8902 2.3203 3.1928 -30.0593 0.0720 -1.7310 -4.7629 0.0000 0.0000 0.0000 16.4505 15.0026 -34.3280 -8.3021 -16.3370 53.6436 -2.9857 -2.4741 -33.6291 -0.0532 1.4888 -4.0948 -0.3563 -0.5559 -1.4904 -0.6971 -0.8570 -12.5884 -0.4780 -0.4332 -12.7408 11.5729 5.1342 -8.1554 -6.6739 7.1964 31.0207 -3.5937 3.8194 12.2400 -0.0000 0.0000 0.0000 30.8393 -15.5633 -61.9103 17.6410 -27.6950 -4.3811 -0.0000 0.0000 -12.5368 10.3633 28.2049 4.9398 -7.1250 0.0000 -0.0000 -22.1854 57.1689 -6.8417 -0.0000 0.0000 0.0000 -32.9415 21.2145 -69.5028 -18.2118 28.4276 -4.6496 0.0000 -0.0000 -31.2387 -30.9491 -25.5165 14.4836 7.1250 -0.0000 -0.0000 -1.4456 -59.0730 0.4972
0.0413 14.7901 9.4641 1.9115 -0.6818 16.3825 0.0000 0.0000 0.0000 -19.6131 -20.1602 -30.8772 7.1437 15.4517 49.4156 2.3451 3.2900 -30.2535 0.0802 -1.8265 -5.0264 0.0000 0.0000 0.0000 16.4047 14.9010 -34.5866 -8.4372 -16.4316 54.1226 -3.0271 -2.3380 -33.8046 -0.0569 1.5387 -4.2323 -0.4104 -0.5657 -1.4973 -0.7067 -0.8745 -12.5966 -0.4567 -0.4365 -12.7458 11.5335 5.1291 -8.2345 -6.6177 7.1850 31.2960 -3.5712 3.8178 12.3642 -0.0000 0.0000 0.0000 31.4498 -16.2526 -61.9801 18.0305 -28.1962 -4.5636 -0.0000 0.0000 -13.3223 10.2605 28.1692 4.8843 -7.1250 0.0000 -0.0000 -22.2641 57.1145 -6.8380 -0.0000 0.0000 0.0000 -33.5755 21.9342 -69.2273 -18.5937 28.9107 -4.8328 0.0000 -0.0000 -31.5201 -30.7897 -25.4730 14.3743 7.1250 -0.0000 -0.0000 -1.2717 -58.9864 0.4347
0.0372 14.7688 9.4706 1.9609 -0.6952 16.3913 0.0000 0.0000 0.0000 -19.6201 -20.2925 -31.0924 7.2837 15.5662 49.9392 2.3682 3.3864 -30.4362 0.0895 -1.9293 -5.3102 0.0000 0.0000 0.0000 16.3564 14.7886 -34.8535 -8.5713 -16.5238 54.5954 -3.0685 -2.1950 -33.9764 -0.0607 1.5892 -4.3717 -0.4599 -0.5770 -1.5043 -0.7170 -0.8939 -12.6016 -0.4387 -0.4414 -12.7472 11.4902 5.1227 -8.3181 -6.5613 7.1715 31.5662 -3.5479 3.8147 12.4878 -0.0000 0.0000 0.0000 32.0267 -16.9182 -62.0097 18.4541 -28.7348 -4.7656 -0.0000 0.0000 -14.0993 10.1989 28.1246 4.8475 -7.1250 0.0000 -0.0000 -22.2954 57.0607 -6.8188 -0.0000 0.0000 0.0000 -34.1711 22.6253 -68.8856 -19.0095 29.4304 -5.0355 0.0000 -0.0000 -31.7945 -30.6178 -25.4538 14.2707 7.1250 -0.0000 -0.0000 -1.0766 -58.9233 0.3664
0.0333 14.7478 9.4769 2.0002 -0.7084 16.4032 0.0000 0.0000 0.0000 -19.6153 -20.4153 -31.3148 7.4244 15.6791 50.4618 2.3901 3.4770 -30.6084 0.0999 -2.0381 -5.6111 0.0000 0.0000 0.0000 16.3181 14.6751 -35.1213 -8.7041 -16.6135 55.0609 -3.1089 -2.0508 -34.1419 -0.0646 1.6405 -4.5131 -0.4965 -0.5874 -1.5047 -0.7263 -0.9113 -12.6033 -0.4267 -0.4466 -12.7487 11.4448 5.1140 -8.4086 -6.5047 7.1536 31.8304 -3.5246 3.8092 12.6104 0.0000 0.0000 0.0000 32.5776 -17.5648 -62.0230 18.9070 -29.3030 -4.9853 -0.0000 0.0000 -14.8390 10.1086 28.0820 4.7972 -7.1250 0.0000 -0.0000 -22.3566 57.0027 -6.8070 0.0000 0.0000 0.0000 -34.7272 23.2901 -68.4911 -19.4602 29.9865 -5.2589 0.0000 -0.0000 -32.0715 -30.4636 -25.4426 14.1812 7.1250 -0.0000 -0.0000 -0.9005 -58.8736 0.3054
0.0297 14.7269 9.4829 2.0333 -0.7198 16.4200 0.0000 0.0000 0.0000 -19.6028 -20.5286 -31.5472 7.5657 15.7903 50.9827 2.4107 3.5595 -30.7689 0.1116 -2.1535 -5.9302 0.0000 0.0000 0.0000 16.2846 14.5575 -35.3926 -8.8353 -16.7005 55.5187 -3.1480 -1.9037 -34.2991 -0.0688 1.6927 -4.6572 -0.5225 -0.5971 -1.5007 -0.7357 -0.9271 -12.6029 -0.4209 -0.4522 -12.7507 11.3962 5.1019 -8.5008 -6.4475 7.1302 32.0851 -3.5010 3.8007 12.7295 -0.0000 -0.0000 0.0000 33.1033 -18.1886 -62.0057 19.3870 -29.8967 -5.2223 -0.0000 0.0000 -15.5352 10.0525 28.0201 4.7606 -7.1250 0.0000 -0.0000 -22.3702 56.9343 -6.7739 -0.0000 -0.0000 0.0000 -35.2533 23.9342 -68.0832 -19.9418 30.5722 -5.5017 0.0000 -0.0000 -32.3607 -30.3237 -25.4380 14.1030 7.1250 -0.0000 -0.0000 -0.7392 -58.8347 0.2500
0.0263 14.7063 9.4886 2.0600 -0.7267 16.4401 0.0000 0.0000 0.0000 -19.5804 -20.6335 -31.7891 7.7076 15.8999 51.5024 2.4302 3.6266 -30.9156 0.1244 -2.2736 -6.2624 0.0000 0.0000 0.0000 16.2571 14.4365 -35.6661 -8.9651 -16.7852 55.9692 -3.1848 -1.7569 -34.4444 -0.0731 1.7441 -4.7990 -0.5387 -0.6065 -1.4865 -0.7451 -0.9420 -12.6019 -0.4205 -0.4584 -12.7583 11.3407 5.0862 -8.5882 -6.3841 7.1004 32.3240 -3.4744 3.7892 12.8404 0.0000 -0.0000 0.0000 33.6060 -18.7916 -61.9636 19.8924 -30.5125 -5.4766 -0.0000 0.0000 -16.1671 9.9604 27.9589 4.7068 -7.1250 0.0000 -0.0000 -22.4204 56.8589 -6.7487 0.0000 -0.0000 0.0000 -35.7466 24.5557 -67.6529 -20.4576 31.1897 -5.7665 0.0000 -0.0000 -32.7012 -30.2138 -25.4175 14.0333 7.1250 -0.0000 -0.0000 -0.6179 -58.7857 0.2082
0.0232 14.6861 9.4940 2.0804 -0.7310 16.4624 0.0000 0.0000 0.0000 -19.5484 -20.7306 -32.0387 7.8502 16.0080 52.0213 2.4484 3.6752 -31.0459 0.1385 -2.3986 -6.6087 0.0000 0.0000 0.0000 16.2344 14.3120 -35.9392 -9.0937 -16.8676 56.4135 -3.2201 -1.6040 -34.5787 -0.0771 1.7915 -4.9299 -0.5447 -0.6154 -1.4667 -0.7544 -0.9558 -12.5995 -0.4258 -0.4651 -12.7679 11.2779 5.0691 -8.6822 -6.3131 7.0667 32.5618 -3.4439 3.7759 12.9518 0.0000 0.0000 0.0000 34.0884 -19.3711 -61.8886 20.4207 -31.1459 -5.7474 -0.0000 0.0000 -16.7407 9.8622 27.8995 4.6506 -7.1250 0.0000 -0.0000 -22.4781 56.7841 -6.7259 0.0000 0.0000 0.0000 -36.2113 25.1548 -67.2025 -21.0052 31.8344 -6.0527 0.0000 -0.0000 -33.1017 -30.1465 -25.3832 13.9799 7.1250 -0.0000 -0.0000 -0.5502 -58.7320 0.1847
0.0204 14.6663 9.4991 2.1042 -0.7331 16.4899 0.0000 0.0000 0.0000 -19.5146 -20.8239 -32.2996 7.9939 16.1148 52.5407 2.4651 3.7055 -31.1588 0.1543 -2.5315 -6.9769 0.0000 0.0000 0.0000 16.2048 14.1859 -36.2194 -9.2223 -16.9487 56.8558 -3.2535 -1.4458 -34.7017 -0.0808 1.8331 -5.0448 -0.5527 -0.6248 -1.4418 -0.7650 -0.9706 -12.5966 -0.4312 -0.4722 -12.7801 11.2074 5.0518 -8.7782 -6.2340 7.0309 32.7929 -3.4090 3.7616 13.0606 0.0000 -0.0000 0.0000 34.5510 -19.9191 -61.7615 20.9723 -31.7960 -6.0354 -0.0000 0.0000 -17.2804 9.7388 27.8461 4.5835 -7.1250 0.0000 -0.0000 -22.5651 56.7096 -6.7125 0.0000 -0.0000 0.0000 -36.6586 25.7363 -66.7707 -21.5787 32.4976 -6.3580 0.0000 -0.0000 -33.5525 -30.0694 -25.3709 13.9323 7.1250 -0.0000 -0.0000 -0.4647 -58.7001 0.1557
0.0176 14.6467 9.5037 2.1286 -0.7426 16.5210 0.0000 0.0000 0.0000 -19.4779 -20.9066 -32.5720 8.1393 16.2208 53.0629 2.4800 3.7215 -31.2547 0.1721 -2.6725 -7.3681 0.0000 0.0000 0.0000 16.1695 14.0684 -36.5051 -9.3517 -17.0288 57.2987 -3.2850 -1.2811 -34.8120 -0.0836 1.8647 -5.1320 -0.5634 -0.6319 -1.4117 -0.7763 -0.9825 -12.5920 -0.4361 -0.4777 -12.7934 11.1270 5.0370 -8.8867 -6.1426 6.9955 33.0251 -3.3670 3.7475 13.1725 0.0000 0.0000 0.0000 34.9921 -20.4358 -61.5735 21.5490 -32.4636 -6.3421 -0.0000 0.0000 -17.8130 9.6266 27.8007 4.5232 -7.1250 0.0000 -0.0000 -22.6462 56.6451 -6.7024 0.0000 0.0000 0.0000 -37.0908 26.2944 -66.3506 -22.1760 33.1754 -6.6819 0.0000 -0.0000 -34.0616 -29.9901 -25.3676 13.8879 7.1250 -0.0000 -0.0000 -0.3741 -58.6773 0.1251
0.0150 14.6272 9.5079 2.1546 -0.7619 16.5586 0.0000 0.0000 0.0000 -19.4372 -20.9793 -32.8613 8.2869 16.3263 53.5897 2.4934 3.7225 -31.3347 0.1915 -2.8185 -7.7737 0.0000 0.0000 0.0000 16.1268 13.9629 -36.8019 -9.4826 -17.1085 57.7447 -3.3141 -1.1125 -34.9093 -0.0856 1.8875 -5.1949 -0.5805 -0.6370 -1.3801 -0.7882 -0.9920 -12.5857 -0.4384 -0.4813 -12.8055 11.0504 5.0255 -9.0061 -6.0510 6.9625 33.2569 -3.3248 3.7348 13.2878 0.0000 0.0000 0.0000 35.4158 -20.9220 -61.3350 22.1459 -33.1415 -6.6654 -0.0000 0.0000 -18.3411 9.5585 27.7599 4.4846 -7.1250 0.0000 -0.0000 -22.6863 56.5936 -6.6864 0.0000 0.0000 0.0000 -37.5120 26.8300 -65.9458 -22.7900 33.8584 -7.0210 0.0000 -0.0000 -34.5972 -29.8904 -25.3858 13.8433 7.1250 -0.0000 -0.0000 -0.2534 -58.6731 0.0847
0.0124 14.6077 9.5115 2.1877 -0.7937 16.6037 0.0000 0.0000 0.0000 -19.3990 -21.0444 -33.1675 8.4367 16.4312 54.1208 2.5060 3.7104 -31.4039 0.2119 -2.9633 -8.1767 0.0000 0.0000 0.0000 16.0704 13.8690 -37.1135 -9.6153 -17.1878 58.1948 -3.3413 -0.9423 -34.9960 -0.0871 1.9031 -5.2378 -0.6083 -0.6392 -1.3462 -0.8037 -0.9988 -12.5782 -0.4387 -0.4827 -12.8175 10.9767 5.0167 -9.1273 -5.9565 6.9310 33.4781 -3.2814 3.7233 13.3999 0.0000 0.0000 0.0000 35.8301 -21.3886 -61.0830 22.7545 -33.8193 -7.0012 -0.0000 0.0000 -18.8338 9.4992 27.7147 4.4497 -7.1250 0.0000 -0.0000 -22.7148 56.5401 -6.6655 0.0000 0.0000 0.0000 -37.9221 27.3468 -65.5629 -23.4143 34.5387 -7.3718 0.0000 -0.0000 -35.1227 -29.7852 -25.4162 13.8016 7.1250 -0.0000 -0.0000 -0.1228 -58.6809 0.0411
